<svg width="1200" height="900" viewBox="0 0 1200 900" fill="none" xmlns="http://www.w3.org/2000/svg" role="img" aria-label="Illustration de marque Evolution Cloud pour la page services">
  <defs>
    <linearGradient id="bg" x1="100" y1="92" x2="1100" y2="812" gradientUnits="userSpaceOnUse">
      <stop stop-color="#060B16"/>
      <stop offset="0.45" stop-color="#0F2E73"/>
      <stop offset="1" stop-color="#0EA5E9"/>
    </linearGradient>
    <radialGradient id="glow" cx="0" cy="0" r="1" gradientUnits="userSpaceOnUse" gradientTransform="translate(590 390) rotate(90) scale(300 360)">
      <stop stop-color="#BAE6FD" stop-opacity="0.85"/>
      <stop offset="0.5" stop-color="#38BDF8" stop-opacity="0.45"/>
      <stop offset="1" stop-color="#38BDF8" stop-opacity="0"/>
    </radialGradient>
    <linearGradient id="cloud" x1="324" y1="212" x2="808" y2="632" gradientUnits="userSpaceOnUse">
      <stop stop-color="#D9F7FF"/>
      <stop offset="0.42" stop-color="#60D2FF"/>
      <stop offset="1" stop-color="#1D4ED8"/>
    </linearGradient>
    <linearGradient id="strokeGrad" x1="260" y1="220" x2="938" y2="690" gradientUnits="userSpaceOnUse">
      <stop stop-color="#E0F2FE" stop-opacity="0.95"/>
      <stop offset="1" stop-color="#93C5FD" stop-opacity="0.55"/>
    </linearGradient>
    <filter id="shadow" x="0" y="0" width="1200" height="900" filterUnits="userSpaceOnUse" color-interpolation-filters="sRGB">
      <feFlood flood-opacity="0" result="BackgroundImageFix"/>
      <feColorMatrix in="SourceAlpha" type="matrix" values="0 0 0 0 0 0 0 0 0 0 0 0 0 0 0 0 0 0 127 0" result="hardAlpha"/>
      <feOffset dy="26"/>
      <feGaussianBlur stdDeviation="26"/>
      <feColorMatrix type="matrix" values="0 0 0 0 0.0196078 0 0 0 0 0.113725 0 0 0 0 0.254902 0 0 0 0.34 0"/>
      <feBlend mode="normal" in2="BackgroundImageFix" result="effect1_dropShadow_1_2"/>
      <feBlend mode="normal" in="SourceGraphic" in2="effect1_dropShadow_1_2" result="shape"/>
    </filter>
  </defs>

  <rect width="1200" height="900" rx="54" fill="url(#bg)"/>
  <circle cx="190" cy="146" r="142" fill="#FFFFFF" fill-opacity="0.06"/>
  <circle cx="1018" cy="180" r="204" fill="#FFFFFF" fill-opacity="0.05"/>
  <circle cx="952" cy="762" r="224" fill="#FFFFFF" fill-opacity="0.04"/>
  <circle cx="212" cy="772" r="148" fill="#FFFFFF" fill-opacity="0.05"/>

  <g opacity="0.2" stroke="#E0F2FE" stroke-width="2">
    <path d="M110 256C258 192 406 158 600 158C794 158 942 192 1090 256"/>
    <path d="M86 404C234 340 400 310 600 310C800 310 966 340 1114 404"/>
    <path d="M96 560C244 496 410 464 600 464C790 464 956 496 1104 560"/>
    <path d="M134 714C274 656 426 628 600 628C774 628 926 656 1066 714"/>
  </g>

  <g filter="url(#shadow)">
    <rect x="164" y="154" width="872" height="620" rx="42" fill="#07111F" fill-opacity="0.18" stroke="#FFFFFF" stroke-opacity="0.12"/>
  </g>

  <g transform="translate(210 184)">
    <rect x="0" y="0" width="780" height="560" rx="34" fill="#081120" fill-opacity="0.92" stroke="#93C5FD" stroke-opacity="0.12"/>
    <circle cx="390" cy="246" r="196" fill="url(#glow)"/>

    <g opacity="0.95">
      <path d="M230 408C230 293.5 323.5 200 438 200C492 200 541 220.8 578.2 254.5C589.3 249.5 601.6 246.8 614.5 246.8C664.4 246.8 705 287.4 705 337.3C705 387.2 664.4 427.8 614.5 427.8H285.2C256.7 427.8 233.4 404.5 233.4 376V408Z" fill="url(#cloud)"/>
      <path d="M362 378L408 292H433L387 378H362Z" fill="#07111F" opacity="0.96"/>
      <path d="M410 378L456 292H481L435 378H410Z" fill="#07111F" opacity="0.96"/>
      <path d="M458 378L504 292H529L483 378H458Z" fill="#07111F" opacity="0.96"/>
      <path d="M508 378L554 292H579L533 378H508Z" fill="#07111F" opacity="0.96"/>
      <path d="M354 404C365 392 380 386 397 386H551C567 386 581 391 592 401" stroke="#E0F2FE" stroke-width="5" stroke-linecap="round" opacity="0.75"/>
    </g>

    <g fill="none" stroke="url(#strokeGrad)" stroke-width="4" stroke-linecap="round" opacity="0.95">
      <path d="M204 196C268 166 332 152 404 152"/>
      <path d="M368 122C422 96 476 86 544 86"/>
      <path d="M560 104C628 106 690 126 742 160"/>
      <path d="M704 228C744 260 768 298 780 344"/>
      <path d="M196 322C210 372 238 414 284 448"/>
    </g>

    <g fill="#E0F2FE">
      <circle cx="404" cy="152" r="8"/>
      <circle cx="544" cy="86" r="8"/>
      <circle cx="742" cy="160" r="8"/>
      <circle cx="780" cy="344" r="8"/>
      <circle cx="284" cy="448" r="8"/>
    </g>

    <g>
      <rect x="74" y="72" width="168" height="48" rx="16" fill="#FFFFFF" fill-opacity="0.08" stroke="#E0F2FE" stroke-opacity="0.12"/>
      <rect x="538" y="72" width="118" height="48" rx="16" fill="#FFFFFF" fill-opacity="0.08" stroke="#E0F2FE" stroke-opacity="0.12"/>
      <rect x="72" y="450" width="172" height="48" rx="16" fill="#FFFFFF" fill-opacity="0.08" stroke="#E0F2FE" stroke-opacity="0.12"/>
      <rect x="538" y="450" width="172" height="48" rx="16" fill="#FFFFFF" fill-opacity="0.08" stroke="#E0F2FE" stroke-opacity="0.12"/>
    </g>

    <g transform="translate(220 520)">
      <text x="0" y="42" fill="#F8FAFC" font-family="Inter, ui-sans-serif, system-ui, -apple-system, BlinkMacSystemFont, 'Segoe UI', sans-serif" font-size="40" font-weight="800" letter-spacing="-1.1">Evolution Cloud</text>
      <text x="2" y="78" fill="#93C5FD" font-family="Inter, ui-sans-serif, system-ui, -apple-system, BlinkMacSystemFont, 'Segoe UI', sans-serif" font-size="15" font-weight="700" letter-spacing="3.0">SERVICES TI &amp; CYBERSÉCURITÉ</text>
    </g>

    <g transform="translate(104 160)">
      <rect x="0" y="0" width="150" height="38" rx="14" fill="#38BDF8" fill-opacity="0.14" stroke="#E0F2FE" stroke-opacity="0.18"/>
      <text x="18" y="25" fill="#E0F2FE" font-family="Inter, ui-sans-serif, system-ui, -apple-system, BlinkMacSystemFont, 'Segoe UI', sans-serif" font-size="14" font-weight="700" letter-spacing="2.2">CLOUD</text>
    </g>

    <g transform="translate(586 160)">
      <rect x="0" y="0" width="150" height="38" rx="14" fill="#38BDF8" fill-opacity="0.14" stroke="#E0F2FE" stroke-opacity="0.18"/>
      <text x="20" y="25" fill="#E0F2FE" font-family="Inter, ui-sans-serif, system-ui, -apple-system, BlinkMacSystemFont, 'Segoe UI', sans-serif" font-size="14" font-weight="700" letter-spacing="2.2">SÉCURITÉ</text>
    </g>

    <g transform="translate(104 416)">
      <rect x="0" y="0" width="180" height="38" rx="14" fill="#38BDF8" fill-opacity="0.14" stroke="#E0F2FE" stroke-opacity="0.18"/>
      <text x="18" y="25" fill="#E0F2FE" font-family="Inter, ui-sans-serif, system-ui, -apple-system, BlinkMacSystemFont, 'Segoe UI', sans-serif" font-size="14" font-weight="700" letter-spacing="2.2">LOI 25</text>
    </g>

    <g transform="translate(558 416)">
      <rect x="0" y="0" width="182" height="38" rx="14" fill="#38BDF8" fill-opacity="0.14" stroke="#E0F2FE" stroke-opacity="0.18"/>
      <text x="18" y="25" fill="#E0F2FE" font-family="Inter, ui-sans-serif, system-ui, -apple-system, BlinkMacSystemFont, 'Segoe UI', sans-serif" font-size="14" font-weight="700" letter-spacing="2.2">SUPPORT</text>
    </g>
  </g>
</svg>
