<svg width="1600" height="900" viewBox="0 0 1600 900" fill="none" xmlns="http://www.w3.org/2000/svg">
  <defs>
    <linearGradient id="bg" x1="800" y1="0" x2="800" y2="900" gradientUnits="userSpaceOnUse">
      <stop stop-color="#071423" stop-opacity="0"/>
      <stop offset="0.45" stop-color="#06111D" stop-opacity="0.04"/>
      <stop offset="1" stop-color="#06111D" stop-opacity="0.15"/>
    </linearGradient>
    <linearGradient id="cloudStroke" x1="630" y1="180" x2="1040" y2="560" gradientUnits="userSpaceOnUse">
      <stop stop-color="#4DEBFF"/>
      <stop offset="0.55" stop-color="#2AA8FF"/>
      <stop offset="1" stop-color="#7DD3FC"/>
    </linearGradient>
    <linearGradient id="cloudFill" x1="620" y1="190" x2="1030" y2="560" gradientUnits="userSpaceOnUse">
      <stop stop-color="#1C5FAD" stop-opacity="0.9"/>
      <stop offset="1" stop-color="#081427" stop-opacity="0.18"/>
    </linearGradient>
    <linearGradient id="cityGlow" x1="770" y1="520" x2="770" y2="720" gradientUnits="userSpaceOnUse">
      <stop stop-color="#22D3EE" stop-opacity="0.9"/>
      <stop offset="1" stop-color="#22D3EE" stop-opacity="0"/>
    </linearGradient>
    <filter id="blurGlow" x="-30%" y="-30%" width="160%" height="160%">
      <feGaussianBlur stdDeviation="16"/>
    </filter>
    <filter id="softGlow" x="-25%" y="-25%" width="150%" height="150%">
      <feGaussianBlur stdDeviation="6"/>
    </filter>
  </defs>

  <rect width="1600" height="900" fill="url(#bg)"/>

  <g opacity="0.9">
    <ellipse cx="965" cy="450" rx="170" ry="70" fill="#22D3EE" opacity="0.08" filter="url(#blurGlow)"/>
    <ellipse cx="965" cy="450" rx="230" ry="110" fill="#2563EB" opacity="0.06" filter="url(#blurGlow)"/>
  </g>

  <g>
    <path d="M878 223C878 175 839 136 791 136C754 136 722 157 706 189C701 187 695 186 688 186C646 186 612 220 612 262C612 304 646 338 688 338H962C1013 338 1054 297 1054 246C1054 195 1013 154 962 154C934 154 909 167 892 188C886 186 879 185 872 185C862 185 851 187 842 191C835 202 878 214 878 223Z" fill="url(#cloudFill)" opacity="0.8"/>
    <path d="M878 223C878 175 839 136 791 136C754 136 722 157 706 189C701 187 695 186 688 186C646 186 612 220 612 262C612 304 646 338 688 338H962C1013 338 1054 297 1054 246C1054 195 1013 154 962 154C934 154 909 167 892 188C886 186 879 185 872 185C862 185 851 187 842 191C835 202 878 214 878 223Z" stroke="url(#cloudStroke)" stroke-width="11" stroke-linecap="round" stroke-linejoin="round"/>
    <path d="M878 223C878 175 839 136 791 136C754 136 722 157 706 189C701 187 695 186 688 186C646 186 612 220 612 262C612 304 646 338 688 338H962C1013 338 1054 297 1054 246C1054 195 1013 154 962 154C934 154 909 167 892 188C886 186 879 185 872 185C862 185 851 187 842 191C835 202 878 214 878 223Z" stroke="#7DD3FC" stroke-opacity="0.55" stroke-width="26" stroke-linecap="round" stroke-linejoin="round" filter="url(#softGlow)"/>
  </g>

  <g opacity="0.9">
    <rect x="690" y="338" width="10" height="70" rx="5" fill="#22D3EE" opacity="0.9"/>
    <rect x="709" y="325" width="8" height="83" rx="4" fill="#60A5FA" opacity="0.9"/>
    <rect x="727" y="350" width="12" height="58" rx="6" fill="#22D3EE" opacity="0.75"/>
    <rect x="751" y="318" width="10" height="90" rx="5" fill="#38BDF8" opacity="0.95"/>
    <rect x="771" y="339" width="12" height="69" rx="6" fill="#60A5FA" opacity="0.9"/>
    <rect x="796" y="326" width="10" height="82" rx="5" fill="#22D3EE" opacity="0.85"/>
    <rect x="817" y="346" width="12" height="62" rx="6" fill="#38BDF8" opacity="0.85"/>
    <rect x="841" y="320" width="10" height="88" rx="5" fill="#60A5FA" opacity="0.95"/>
    <rect x="861" y="334" width="12" height="74" rx="6" fill="#22D3EE" opacity="0.9"/>
    <rect x="885" y="343" width="10" height="65" rx="5" fill="#38BDF8" opacity="0.8"/>
    <rect x="906" y="330" width="12" height="78" rx="6" fill="#60A5FA" opacity="0.9"/>
  </g>

  <g opacity="0.82">
    <path d="M555 650H1120" stroke="#16385D" stroke-width="1.5" stroke-opacity="0.55"/>
    <path d="M510 648H1180" stroke="#22D3EE" stroke-opacity="0.16" stroke-width="10" filter="url(#blurGlow)"/>
    <g fill="#22D3EE">
      <rect x="531" y="600" width="16" height="40" rx="4" opacity="0.65"/>
      <rect x="558" y="578" width="10" height="62" rx="4" opacity="0.55"/>
      <rect x="576" y="610" width="14" height="30" rx="4" opacity="0.75"/>
      <rect x="602" y="591" width="12" height="49" rx="4" opacity="0.6"/>
      <rect x="625" y="566" width="14" height="74" rx="4" opacity="0.8"/>
      <rect x="650" y="598" width="12" height="42" rx="4" opacity="0.66"/>
      <rect x="674" y="575" width="16" height="65" rx="4" opacity="0.72"/>
      <rect x="703" y="555" width="12" height="85" rx="4" opacity="0.9"/>
      <rect x="728" y="590" width="10" height="50" rx="4" opacity="0.55"/>
      <rect x="749" y="570" width="14" height="70" rx="4" opacity="0.84"/>
      <rect x="773" y="548" width="12" height="92" rx="4" opacity="0.86"/>
      <rect x="799" y="594" width="10" height="46" rx="4" opacity="0.58"/>
      <rect x="821" y="565" width="14" height="75" rx="4" opacity="0.82"/>
      <rect x="846" y="580" width="10" height="60" rx="4" opacity="0.68"/>
      <rect x="867" y="552" width="16" height="88" rx="4" opacity="0.94"/>
      <rect x="896" y="588" width="12" height="52" rx="4" opacity="0.62"/>
      <rect x="920" y="568" width="14" height="72" rx="4" opacity="0.84"/>
      <rect x="946" y="557" width="12" height="83" rx="4" opacity="0.92"/>
      <rect x="971" y="578" width="10" height="62" rx="4" opacity="0.64"/>
      <rect x="994" y="565" width="16" height="75" rx="4" opacity="0.82"/>
      <rect x="1024" y="595" width="10" height="45" rx="4" opacity="0.55"/>
      <rect x="1046" y="572" width="14" height="68" rx="4" opacity="0.8"/>
      <rect x="1072" y="582" width="12" height="58" rx="4" opacity="0.7"/>
    </g>
    <g fill="#7DD3FC" opacity="0.65">
      <circle cx="554" cy="587" r="3"/>
      <circle cx="606" cy="570" r="3"/>
      <circle cx="658" cy="558" r="3"/>
      <circle cx="721" cy="542" r="3"/>
      <circle cx="782" cy="528" r="3"/>
      <circle cx="846" cy="544" r="3"/>
      <circle cx="910" cy="522" r="3"/>
      <circle cx="975" cy="537" r="3"/>
      <circle cx="1041" cy="548" r="3"/>
    </g>
  </g>
</svg>
