<svg width="1200" height="600" viewBox="0 0 1200 600" fill="none" xmlns="http://www.w3.org/2000/svg" role="img" aria-label="Illustration bâtiments connectés">
  <defs>
    <linearGradient id="bg" x1="80" y1="40" x2="1120" y2="560" gradientUnits="userSpaceOnUse">
      <stop stop-color="#0B1220"/>
      <stop offset="0.48" stop-color="#1E293B"/>
      <stop offset="1" stop-color="#64748B"/>
    </linearGradient>
  </defs>
  <rect width="1200" height="600" rx="42" fill="url(#bg)"/>
  <circle cx="190" cy="120" r="110" fill="#FFFFFF" fill-opacity="0.05"/>
  <circle cx="1010" cy="98" r="130" fill="#FFFFFF" fill-opacity="0.05"/>
  <circle cx="980" cy="500" r="150" fill="#FFFFFF" fill-opacity="0.04"/>
  <circle cx="210" cy="500" r="90" fill="#FFFFFF" fill-opacity="0.04"/>
  <g opacity="0.92">
    <rect x="310" y="180" width="176" height="236" rx="18" fill="#E2E8F0" fill-opacity="0.12" stroke="#E2E8F0" stroke-opacity="0.16"/>
    <rect x="514" y="134" width="216" height="282" rx="20" fill="#E2E8F0" fill-opacity="0.14" stroke="#E2E8F0" stroke-opacity="0.16"/>
    <rect x="754" y="206" width="126" height="210" rx="18" fill="#E2E8F0" fill-opacity="0.12" stroke="#E2E8F0" stroke-opacity="0.16"/>
    <g fill="#E0F2FE">
      <rect x="348" y="220" width="28" height="28" rx="6"/>
      <rect x="392" y="220" width="28" height="28" rx="6"/>
      <rect x="348" y="268" width="28" height="28" rx="6"/>
      <rect x="392" y="268" width="28" height="28" rx="6"/>
      <rect x="348" y="316" width="28" height="28" rx="6"/>
      <rect x="392" y="316" width="28" height="28" rx="6"/>
      <rect x="350" y="364" width="76" height="18" rx="9"/>
      <rect x="560" y="174" width="94" height="18" rx="9"/>
      <rect x="560" y="212" width="126" height="10" rx="5"/>
      <rect x="560" y="236" width="102" height="10" rx="5"/>
      <rect x="560" y="272" width="126" height="10" rx="5"/>
      <rect x="560" y="296" width="88" height="10" rx="5"/>
      <rect x="792" y="246" width="58" height="58" rx="12"/>
      <rect x="792" y="320" width="58" height="12" rx="6"/>
    </g>
    <path d="M300 476H910" stroke="#E0F2FE" stroke-width="4" stroke-linecap="round" opacity="0.7"/>
  </g>
  <text x="92" y="534" fill="#E0F2FE" font-family="Inter, ui-sans-serif, system-ui, sans-serif" font-size="24" font-weight="700" letter-spacing="6">BÂTIMENTS</text>
</svg>
